<mxfile host="app.diagrams.net" agent="Mozilla/5.0 (Macintosh; Intel Mac OS X 10_15_7) AppleWebKit/537.36 (KHTML, like Gecko) Chrome/139.0.0.0 Safari/537.36" version="28.2.0">
  <diagram name="Page-1" id="mrlh-7esN9r-Qak52m-t">
    <mxGraphModel dx="826" dy="560" grid="1" gridSize="10" guides="1" tooltips="1" connect="1" arrows="1" fold="1" page="1" pageScale="1" pageWidth="850" pageHeight="1100" math="0" shadow="0">
      <root>
        <mxCell id="0" />
        <mxCell id="1" parent="0" />
        <mxCell id="4" value="Conduct research" style="rounded=1;whiteSpace=wrap;html=1;shadow=0;fontFamily=Anonymous Pro;fontSource=https%3A%2F%2Ffonts.googleapis.com%2Fcss%3Ffamily%3DAnonymous%2BPro;fontSize=10;direction=south;labelBackgroundColor=none;" parent="1" vertex="1">
          <mxGeometry x="410" y="85" width="210" height="30" as="geometry" />
        </mxCell>
        <mxCell id="6" value="Clothing tags" style="rounded=1;whiteSpace=wrap;html=1;shadow=0;fontFamily=Anonymous Pro;fontSource=https%3A%2F%2Ffonts.googleapis.com%2Fcss%3Ffamily%3DAnonymous%2BPro;fontSize=10;labelBackgroundColor=none;" parent="1" vertex="1">
          <mxGeometry x="800" y="110" width="120" height="30" as="geometry" />
        </mxCell>
        <mxCell id="7" value="Care info" style="ellipse;whiteSpace=wrap;html=1;shadow=0;fontFamily=Anonymous Pro;fontSource=https%3A%2F%2Ffonts.googleapis.com%2Fcss%3Ffamily%3DAnonymous%2BPro;fontSize=10;labelBackgroundColor=none;" parent="1" vertex="1">
          <mxGeometry x="950" y="60" width="80" height="30" as="geometry" />
        </mxCell>
        <mxCell id="8" value="Composition" style="ellipse;whiteSpace=wrap;html=1;shadow=0;fontFamily=Anonymous Pro;fontSource=https%3A%2F%2Ffonts.googleapis.com%2Fcss%3Ffamily%3DAnonymous%2BPro;fontSize=10;labelBackgroundColor=none;" parent="1" vertex="1">
          <mxGeometry x="950" y="100" width="80" height="30" as="geometry" />
        </mxCell>
        <mxCell id="9" value="Size" style="ellipse;whiteSpace=wrap;html=1;shadow=0;fontFamily=Anonymous Pro;fontSource=https%3A%2F%2Ffonts.googleapis.com%2Fcss%3Ffamily%3DAnonymous%2BPro;fontSize=10;labelBackgroundColor=none;" parent="1" vertex="1">
          <mxGeometry x="950" y="140" width="80" height="30" as="geometry" />
        </mxCell>
        <mxCell id="e6-7" style="edgeStyle=elbowEdgeStyle;endArrow=block;html=1;shadow=0;fontFamily=Anonymous Pro;fontSource=https%3A%2F%2Ffonts.googleapis.com%2Fcss%3Ffamily%3DAnonymous%2BPro;fontSize=10;labelBackgroundColor=none;fontColor=default;" parent="1" source="6" target="7" edge="1">
          <mxGeometry relative="1" as="geometry" />
        </mxCell>
        <mxCell id="e6-8" style="edgeStyle=elbowEdgeStyle;endArrow=block;html=1;shadow=0;fontFamily=Anonymous Pro;fontSource=https%3A%2F%2Ffonts.googleapis.com%2Fcss%3Ffamily%3DAnonymous%2BPro;fontSize=10;labelBackgroundColor=none;fontColor=default;" parent="1" source="6" target="8" edge="1">
          <mxGeometry relative="1" as="geometry" />
        </mxCell>
        <mxCell id="e6-9" style="edgeStyle=elbowEdgeStyle;endArrow=block;html=1;shadow=0;fontFamily=Anonymous Pro;fontSource=https%3A%2F%2Ffonts.googleapis.com%2Fcss%3Ffamily%3DAnonymous%2BPro;fontSize=10;labelBackgroundColor=none;fontColor=default;" parent="1" source="6" target="9" edge="1">
          <mxGeometry relative="1" as="geometry" />
        </mxCell>
        <mxCell id="tEUCMFYiQgjAi_Qpb-tJ-18" style="edgeStyle=elbowEdgeStyle;rounded=0;orthogonalLoop=1;jettySize=auto;html=1;fontFamily=Anonymous Pro;fontSource=https%3A%2F%2Ffonts.googleapis.com%2Fcss%3Ffamily%3DAnonymous%2BPro;fontSize=10;fontColor=default;jumpStyle=arc;exitX=1;exitY=0.5;exitDx=0;exitDy=0;labelBackgroundColor=none;" parent="1" source="tEUCMFYiQgjAi_Qpb-tJ-17" target="jdNBLQDV3vvay_QoMD-i-14" edge="1">
          <mxGeometry relative="1" as="geometry">
            <mxPoint x="280" y="145" as="targetPoint" />
          </mxGeometry>
        </mxCell>
        <mxCell id="tEUCMFYiQgjAi_Qpb-tJ-17" value="Capture photo of item" style="ellipse;whiteSpace=wrap;html=1;aspect=fixed;rounded=1;shadow=0;glass=0;fillStyle=auto;opacity=80;align=center;verticalAlign=middle;fontFamily=Anonymous Pro;fontSource=https%3A%2F%2Ffonts.googleapis.com%2Fcss%3Ffamily%3DAnonymous%2BPro;fontSize=10;labelBackgroundColor=none;" parent="1" vertex="1">
          <mxGeometry x="40" y="75" width="140" height="140" as="geometry" />
        </mxCell>
        <mxCell id="jdNBLQDV3vvay_QoMD-i-14" value="&lt;font&gt;identify item attributes&lt;/font&gt;" style="whiteSpace=wrap;html=1;rounded=1;fontFamily=Anonymous Pro;fontSource=https%3A%2F%2Ffonts.googleapis.com%2Fcss%3Ffamily%3DAnonymous%2BPro;fontSize=10;" vertex="1" parent="1">
          <mxGeometry x="310" y="155" width="120" height="60" as="geometry" />
        </mxCell>
        <mxCell id="jdNBLQDV3vvay_QoMD-i-15" value="" style="group;fillColor=light-dark(#FFFFFF,#E6FFCC);fillStyle=auto;strokeColor=none;perimeterSpacing=0;resizeWidth=1;imageWidth=24;container=0;imageAspect=0;dropTarget=0;labelPadding=18;opacity=50;" vertex="1" connectable="0" parent="1">
          <mxGeometry x="400" y="260" width="100" height="180" as="geometry" />
        </mxCell>
        <mxCell id="10" value="Color" style="ellipse;whiteSpace=wrap;html=1;shadow=0;fontFamily=Anonymous Pro;fontSource=https%3A%2F%2Ffonts.googleapis.com%2Fcss%3Ffamily%3DAnonymous%2BPro;fontSize=10;labelBackgroundColor=none;fillOpacity=100;dashed=1;dashPattern=1 2;comic=0;perimeterSpacing=0;" parent="1" vertex="1">
          <mxGeometry x="400" y="356" width="100" height="36" as="geometry" />
        </mxCell>
        <mxCell id="11" value="Dimensions" style="ellipse;whiteSpace=wrap;html=1;shadow=0;fontFamily=Anonymous Pro;fontSource=https%3A%2F%2Ffonts.googleapis.com%2Fcss%3Ffamily%3DAnonymous%2BPro;fontSize=10;labelBackgroundColor=none;fillOpacity=100;dashed=1;dashPattern=1 2;comic=0;perimeterSpacing=0;" parent="1" vertex="1">
          <mxGeometry x="400" y="404" width="100" height="36" as="geometry" />
        </mxCell>
        <mxCell id="13" value="Theme/Style" style="ellipse;whiteSpace=wrap;html=1;shadow=0;fontFamily=Anonymous Pro;fontSource=https%3A%2F%2Ffonts.googleapis.com%2Fcss%3Ffamily%3DAnonymous%2BPro;fontSize=10;labelBackgroundColor=none;fillOpacity=100;dashed=1;dashPattern=1 2;comic=0;perimeterSpacing=0;" parent="1" vertex="1">
          <mxGeometry x="400" y="308" width="100" height="36" as="geometry" />
        </mxCell>
        <mxCell id="14" value="Condition" style="ellipse;whiteSpace=wrap;html=1;shadow=0;fontFamily=Anonymous Pro;fontSource=https%3A%2F%2Ffonts.googleapis.com%2Fcss%3Ffamily%3DAnonymous%2BPro;fontSize=10;labelBackgroundColor=none;fillOpacity=100;dashed=1;dashPattern=1 2;comic=0;perimeterSpacing=0;" parent="1" vertex="1">
          <mxGeometry x="400" y="260" width="100" height="36" as="geometry" />
        </mxCell>
      </root>
    </mxGraphModel>
  </diagram>
</mxfile>
